# xmcd
#
# Track frame offsets:
#	150
#	16990
#	33272
#	50120
#	72642
#	93992
#	112030
#	130347
#	156005
#	174307
#
# Disc length: 2613 seconds
#
# Revision: 1
# Processed by: cddbd v1.5.2PL0 Copyright (c) Steve Scherf et al.
# Submitted via: EasyCDDAExtractor 11.5.0.1
#
DISCID=850a330a
DTITLE=ירמי קפלן - לרע ולטוב
DYEAR=1999
DGENRE=Rock and Roll
TTITLE0=קולה וברה
TTITLE1=לרע ולטוב
TTITLE2=הולך סביב
TTITLE3=הזדמנות
TTITLE4=מה שתחשוב
TTITLE5=לאלף אותך
TTITLE6=ילד תם
TTITLE7=כל המשאלות
TTITLE8=גורל מתוק
TTITLE9=רודף אחריה
EXTD=
EXTT0=
EXTT1=
EXTT2=
EXTT3=
EXTT4=
EXTT5=
EXTT6=
EXTT7=
EXTT8=
EXTT9=
PLAYORDER=
